<svg width="360" height="258" viewBox="0 0 360 258" fill="none" xmlns="http://www.w3.org/2000/svg">
<g clip-path="url(#clip0_1227_30814)">
<path d="M23.8604 257.667H336.121C336.28 257.667 336.431 257.604 336.543 257.491C336.655 257.379 336.718 257.227 336.718 257.069C336.718 256.91 336.655 256.758 336.543 256.646C336.431 256.534 336.28 256.471 336.121 256.471H23.8604C23.7021 256.471 23.5504 256.534 23.4384 256.646C23.3265 256.758 23.2637 256.91 23.2637 257.069C23.2637 257.227 23.3265 257.379 23.4384 257.491C23.5504 257.604 23.7021 257.667 23.8604 257.667Z" fill="#CCCCCC"/>
<path d="M282.627 211.758C278.008 211.758 273.309 211.655 268.532 211.448L268.583 210.256C304.234 211.802 335.69 207.529 359.555 197.896L360 199.003C339.182 207.405 312.647 211.758 282.627 211.758Z" fill="#F0F0F0"/>
<path d="M254.637 213.548C250.018 213.548 245.319 213.444 240.542 213.238L240.593 212.046C276.244 213.592 307.699 209.319 331.565 199.686L332.01 200.793C311.192 209.195 284.657 213.548 254.637 213.548Z" fill="#F0F0F0"/>
<path d="M260.054 176.793C237.262 176.793 212.494 173.401 187.892 166.877C157.469 158.81 129.574 146.634 107.224 131.664L107.885 130.673C130.129 145.57 157.9 157.691 188.197 165.724C215.576 172.984 243.161 176.348 267.958 175.461L268.001 176.652C265.382 176.747 262.733 176.794 260.054 176.793Z" fill="#F0F0F0"/>
<path d="M312.343 169.291L311.962 168.161C332.346 161.258 345.096 150.138 348.833 136.001C353.582 118.031 343.263 97.177 319.777 77.2815C296.17 57.2849 262.129 40.6928 223.923 30.5622L224.228 29.4088C262.601 39.584 296.808 56.262 320.546 76.3707C344.403 96.5802 354.858 117.866 349.984 136.306C346.14 150.848 333.124 162.254 312.343 169.291Z" fill="#F0F0F0"/>
<path d="M355.677 161.505C350.841 149.571 339.948 139.457 327.118 138.595C335.154 150.057 338.882 163.997 337.644 177.949C337.147 183.327 336.035 189.258 339.054 193.734C340.932 196.519 344.146 198.173 347.43 198.865C350.714 199.557 354.109 199.396 357.461 199.231L358.223 199.58C360.209 186.855 360.513 173.439 355.677 161.505Z" fill="#F2F2F2"/>
<path d="M327.064 138.86C335.965 144.705 342.8 153.21 346.6 163.169C347.456 165.298 347.972 167.549 348.128 169.839C348.208 172.074 347.689 174.291 346.625 176.258C345.67 178.111 344.478 179.897 343.989 181.951C343.754 183.006 343.745 184.099 343.961 185.158C344.178 186.218 344.616 187.219 345.246 188.097C346.759 190.325 348.981 191.875 351.207 193.316C353.678 194.916 356.27 196.538 357.829 199.12C358.018 199.433 358.492 199.121 358.303 198.809C355.59 194.317 350.13 192.818 346.706 189.035C345.108 187.27 344.031 185.013 344.438 182.588C344.793 180.467 346.021 178.625 347.004 176.756C348.071 174.853 348.655 172.717 348.708 170.535C348.668 168.244 348.24 165.977 347.441 163.83C345.72 158.969 343.247 154.408 340.111 150.316C336.558 145.626 332.231 141.58 327.316 138.351C327.012 138.152 326.761 138.661 327.064 138.86V138.86Z" fill="white"/>
<path d="M347.233 175.382C343.689 174.374 340.654 172.066 338.734 168.918C338.544 168.606 338.07 168.917 338.26 169.229C340.264 172.502 343.428 174.897 347.118 175.937C347.47 176.036 347.583 175.48 347.233 175.382Z" fill="white"/>
<path d="M345.566 159.89C347.147 159.024 348.37 157.624 349.016 155.939C349.662 154.254 349.689 152.394 349.092 150.691C348.97 150.347 348.43 150.52 348.552 150.865C349.111 152.45 349.086 154.183 348.481 155.75C347.877 157.318 346.732 158.618 345.255 159.415C344.934 159.589 345.247 160.062 345.566 159.89Z" fill="white"/>
<path d="M336.19 146.282C335.647 146.745 334.999 147.065 334.302 147.215C333.606 147.364 332.883 147.338 332.199 147.139C331.849 147.035 331.736 147.592 332.084 147.694C332.841 147.911 333.639 147.939 334.409 147.775C335.179 147.612 335.897 147.262 336.501 146.757C336.561 146.714 336.604 146.649 336.619 146.576C336.634 146.503 336.621 146.427 336.582 146.364C336.54 146.301 336.476 146.257 336.403 146.242C336.329 146.227 336.253 146.241 336.19 146.282H336.19Z" fill="white"/>
<path d="M83.8545 112.875C65.5923 94.8681 57.8792 76.0826 62.1354 59.9793C67.5975 39.314 91.863 25.0257 128.71 20.7781L128.846 21.9635C92.512 26.1517 68.6167 40.1193 63.2869 60.2845C59.1447 75.9562 66.7458 94.3314 84.6902 112.025L83.8545 112.875Z" fill="#F0F0F0"/>
<path d="M125.165 177.292C80.379 157.397 45.8683 131.586 27.9902 104.613L28.9824 103.953C46.7369 130.739 81.0664 156.397 125.647 176.201L125.165 177.292Z" fill="#F0F0F0"/>
<path d="M232.065 178.583C209.272 178.583 184.505 175.19 159.903 168.667C129.48 160.6 101.585 148.423 79.2344 133.453L79.8962 132.462C102.139 147.359 129.91 159.48 160.208 167.513C187.587 174.774 215.171 178.138 239.969 177.25L240.012 178.442C237.393 178.536 234.744 178.583 232.065 178.583Z" fill="#F0F0F0"/>
<path d="M284.353 171.081L283.971 169.951C304.356 163.047 317.106 151.927 320.842 137.791C325.592 119.82 315.273 98.9665 291.786 79.071C268.18 59.0745 234.139 42.4824 195.933 32.3517L196.237 31.1984C234.611 41.3736 268.817 58.0516 292.555 78.1603C316.413 98.3698 326.868 119.655 321.994 138.096C318.15 152.638 305.134 164.043 284.353 171.081Z" fill="#F0F0F0"/>
<path d="M297.187 170.263C297.403 170.333 297.62 170.404 297.839 170.479C300.751 171.445 303.579 172.647 306.297 174.072C306.509 174.179 306.722 174.29 306.93 174.403C313.441 177.906 319.246 182.589 324.05 188.214C325.96 190.454 327.696 192.836 329.245 195.341C331.383 198.799 333.427 202.719 336.492 205.195C336.808 205.457 337.141 205.699 337.488 205.92L357.738 200.484C357.778 200.449 357.819 200.418 357.859 200.382L358.677 200.202C358.607 200.068 358.53 199.929 358.459 199.795C358.419 199.716 358.373 199.639 358.332 199.561C358.304 199.509 358.275 199.457 358.252 199.409C358.243 199.392 358.233 199.374 358.225 199.362C358.202 199.313 358.176 199.271 358.154 199.227C357.729 198.453 357.298 197.681 356.861 196.91C356.86 196.906 356.86 196.906 356.854 196.902C353.578 191 349.615 185.507 345.048 180.539C344.91 180.393 344.77 180.242 344.623 180.098C342.539 177.915 340.281 175.907 337.871 174.093C336.548 173.104 335.176 172.183 333.76 171.333C330.098 169.144 326.114 167.545 321.955 166.595C313.665 164.704 304.862 165.489 297.728 169.919C297.546 170.032 297.368 170.145 297.187 170.263Z" fill="#F2F2F2"/>
<path d="M297.301 170.508C307.921 169.807 318.492 172.476 327.512 178.136C329.475 179.32 331.24 180.806 332.741 182.54C334.149 184.277 335.067 186.36 335.4 188.572C335.751 190.628 335.873 192.773 336.717 194.708C337.164 195.692 337.813 196.57 338.623 197.285C339.433 198 340.384 198.536 341.415 198.856C343.962 199.723 346.668 199.621 349.312 199.429C352.246 199.216 355.291 198.949 358.088 200.07C358.427 200.206 358.618 199.671 358.279 199.535C353.413 197.585 348.152 199.68 343.145 198.725C340.808 198.28 338.591 197.126 337.458 194.945C336.467 193.038 336.34 190.827 336.002 188.741C335.709 186.578 334.892 184.52 333.622 182.747C332.214 180.942 330.509 179.39 328.581 178.157C324.285 175.313 319.568 173.164 314.605 171.787C308.949 170.185 303.062 169.564 297.197 169.95C296.834 169.974 296.94 170.532 297.301 170.508V170.508Z" fill="white"/>
<path d="M335.359 187.506C331.924 188.839 328.114 188.826 324.687 187.47C324.348 187.335 324.157 187.87 324.496 188.004C328.064 189.409 332.03 189.414 335.601 188.019C335.942 187.886 335.698 187.373 335.359 187.506V187.506Z" fill="white"/>
<path d="M309.05 170.931C308.895 171.627 308.57 172.274 308.103 172.814C307.637 173.353 307.044 173.768 306.379 174.021C306.037 174.15 306.281 174.662 306.621 174.534C307.355 174.251 308.009 173.792 308.525 173.197C309.042 172.603 309.405 171.89 309.583 171.123C309.606 171.052 309.601 170.975 309.569 170.907C309.537 170.84 309.481 170.787 309.412 170.76C309.341 170.735 309.263 170.739 309.196 170.771C309.128 170.803 309.075 170.86 309.05 170.931V170.931Z" fill="white"/>
<path d="M324.715 176.142C325.458 174.497 325.592 172.642 325.095 170.907C324.598 169.172 323.501 167.671 322.001 166.671C321.696 166.47 321.37 166.934 321.675 167.135C323.073 168.064 324.095 169.462 324.555 171.079C325.014 172.696 324.882 174.423 324.181 175.951C324.03 176.283 324.564 176.472 324.715 176.142L324.715 176.142Z" fill="white"/>
<path d="M55.8652 114.664C37.603 96.6577 29.8899 77.8722 34.1462 61.7688C39.6083 41.1035 63.8737 26.8153 100.721 22.5676L100.857 23.753C64.5228 27.9412 40.6275 41.9088 35.2977 62.074C31.1554 77.7458 38.7566 96.1209 56.7009 113.815L55.8652 114.664Z" fill="#F0F0F0"/>
<path d="M97.1743 179.081C52.3887 159.186 17.8781 133.375 0 106.402L0.992172 105.742C18.7466 132.529 53.0762 158.187 97.6571 177.991L97.1743 179.081Z" fill="#F0F0F0"/>
<path d="M20.3011 82.7114C28.8602 73.0996 42.5134 67.2414 54.8863 70.7482C43.4718 78.839 35.2825 90.7129 31.7671 104.269C30.4304 109.502 29.4875 115.462 25.1425 118.662C22.4389 120.652 18.8566 121.128 15.5318 120.675C12.2068 120.221 9.06293 118.926 5.96149 117.643L5.12695 117.715C7.52631 105.062 11.742 92.3233 20.3011 82.7114Z" fill="#F2F2F2"/>
<path d="M54.8485 71.0158C44.5039 73.5245 35.2115 79.2341 28.2912 87.3337C26.7705 89.0508 25.5296 90.9973 24.614 93.1015C23.7883 95.1802 23.5334 97.4424 23.8758 99.653C24.1537 101.721 24.6769 103.803 24.4482 105.903C24.3151 106.976 23.9572 108.008 23.3978 108.933C22.8384 109.857 22.0902 110.653 21.2022 111.268C19.0295 112.857 16.4163 113.569 13.8365 114.177C10.9723 114.852 7.98654 115.507 5.6517 117.414C5.36881 117.645 5.02747 117.191 5.30994 116.961C9.37214 113.644 15.0177 114.07 19.5122 111.66C21.6094 110.536 23.381 108.772 23.8118 106.351C24.1884 104.234 23.6506 102.086 23.3512 99.9951C22.9856 97.8434 23.1517 95.6348 23.8348 93.5621C24.6404 91.418 25.8044 89.4269 27.277 87.674C30.5294 83.6746 34.3894 80.2122 38.7156 77.4138C43.6354 74.1926 49.0691 71.8381 54.7815 70.4521C55.1351 70.3664 55.1998 70.9308 54.8485 71.0158H54.8485Z" fill="white"/>
<path d="M23.5971 98.6232C27.2729 98.8678 30.9056 97.7157 33.771 95.3966C34.0547 95.1666 34.3961 95.6197 34.1127 95.8494C31.1265 98.2571 27.3436 99.4484 23.5191 99.1855C23.1545 99.1602 23.2345 98.5981 23.5971 98.6232Z" fill="white"/>
<path d="M72.4496 110.65C72.2215 110.644 71.9935 110.637 71.7625 110.634C68.6959 110.564 65.6286 110.743 62.591 111.17C62.3556 111.2 62.1175 111.233 61.8834 111.269C54.576 112.376 47.5373 114.833 41.1252 118.513C38.575 119.98 36.1399 121.64 33.8411 123.477C30.6664 126.014 27.4258 129.018 23.7091 130.318C23.3229 130.458 22.9283 130.574 22.5278 130.665L5.27958 118.729C5.25397 118.683 5.22547 118.639 5.19967 118.593L4.48926 118.148C4.60121 118.044 4.71954 117.94 4.8315 117.837C4.8962 117.777 4.96475 117.72 5.02941 117.66C5.07376 117.62 5.11832 117.581 5.1561 117.543C5.17082 117.53 5.18573 117.517 5.19773 117.508C5.23553 117.47 5.27462 117.439 5.30967 117.405C5.96948 116.819 6.63454 116.237 7.30486 115.659C7.30758 115.655 7.30759 115.655 7.31414 115.654C12.3798 111.197 17.9553 107.358 23.924 104.217C24.1034 104.125 24.2853 104.03 24.4725 103.944C27.1671 102.59 29.9677 101.459 32.8463 100.562C34.4241 100.075 36.0255 99.6696 37.6442 99.3456C41.8285 98.5166 46.1169 98.352 50.3523 98.8578C58.7952 99.8673 66.8219 103.57 72.0547 110.144C72.1885 110.312 72.3186 110.478 72.4496 110.65Z" fill="#F2F2F2"/>
<path d="M72.2599 110.842C62.4923 106.607 51.6408 105.562 41.2467 107.856C39.0003 108.31 36.8394 109.116 34.8436 110.244C32.9348 111.406 31.3715 113.058 30.316 115.03C29.295 116.848 28.4608 118.827 27.0163 120.365C26.2652 121.141 25.3587 121.75 24.3563 122.151C23.3538 122.552 22.2782 122.736 21.1997 122.691C18.5097 122.65 15.9949 121.643 13.5699 120.572C10.8773 119.384 8.09941 118.106 5.08912 118.221C4.72437 118.235 4.72426 117.667 5.08843 117.653C10.3258 117.454 14.5775 121.199 19.6143 121.985C21.9646 122.352 24.4396 122.012 26.2386 120.339C27.8117 118.876 28.6736 116.837 29.6915 114.986C30.6931 113.048 32.1532 111.385 33.9445 110.142C35.8765 108.916 38.0028 108.028 40.2323 107.516C45.2332 106.284 50.3965 105.847 55.5328 106.222C61.3973 106.617 67.1511 108.013 72.5453 110.352C72.8791 110.497 72.5915 110.986 72.2599 110.842H72.2599Z" fill="white"/>
<path d="M30.7117 114.039C33.4996 116.451 37.0927 117.722 40.7745 117.598C41.1393 117.586 41.1395 118.153 40.7752 118.166C36.9436 118.288 33.2071 116.957 30.3114 114.441C30.0356 114.201 30.4373 113.801 30.7117 114.039Z" fill="white"/>
<path d="M283.437 116.859C283.859 114.257 282.095 111.806 279.498 111.384C276.9 110.962 274.453 112.729 274.032 115.33C273.61 117.931 275.374 120.383 277.971 120.805C280.569 121.227 283.016 119.46 283.437 116.859Z" fill="#E6E6E6"/>
<path d="M61.0524 107.286C60.9646 107.994 61.0538 108.713 61.3119 109.378C61.57 110.042 61.989 110.633 62.5311 111.095C62.8099 111.332 62.4078 111.732 62.1309 111.497C61.5342 110.983 61.0724 110.331 60.7855 109.597C60.4987 108.863 60.3958 108.07 60.4856 107.287C60.4879 107.212 60.5184 107.141 60.571 107.088C60.6236 107.036 60.6942 107.005 60.7686 107.002C60.8437 107.003 60.9156 107.033 60.9687 107.086C61.0218 107.139 61.0519 107.211 61.0523 107.286H61.0524Z" fill="white"/>
<path d="M44.5499 106.92C44.4024 105.121 44.8982 103.328 45.9486 101.862C46.9991 100.395 48.5359 99.3502 50.2845 98.9137C50.6386 98.8265 50.7904 99.3736 50.4358 99.4609C48.8067 99.8643 47.3753 100.838 46.3999 102.206C45.4245 103.573 44.9694 105.245 45.1167 106.92C45.1482 107.283 44.5813 107.282 44.5499 106.92Z" fill="white"/>
<path d="M43.7626 74.9343C44.1181 75.5525 44.6213 76.0726 45.2271 76.4478C45.8329 76.8231 46.5222 77.0418 47.2332 77.0842C47.5979 77.1049 47.5175 77.667 47.1552 77.6465C46.3699 77.5959 45.6089 77.3535 44.9387 76.9404C44.2685 76.5273 43.7095 75.9561 43.3105 75.2767C43.2676 75.2158 43.2494 75.1408 43.2596 75.067C43.2699 74.9931 43.3078 74.9259 43.3657 74.8791C43.4258 74.8341 43.5012 74.8146 43.5755 74.825C43.6498 74.8353 43.7171 74.8746 43.7626 74.9344L43.7626 74.9343Z" fill="white"/>
<path d="M30.3664 84.5942C29.1673 83.2468 28.4855 81.5163 28.4426 79.7118C28.3997 77.9073 28.9986 76.1463 30.1324 74.7432C30.3628 74.4601 30.8128 74.8054 30.5821 75.0889C29.524 76.3934 28.9662 78.0339 29.0096 79.7141C29.0529 81.3944 29.6945 83.0038 30.8185 84.2519C31.0625 84.5234 30.609 84.8641 30.3664 84.5942Z" fill="white"/>
<path d="M101.076 69.779C103.707 69.779 105.84 67.6426 105.84 65.0071C105.84 62.3717 103.707 60.2352 101.076 60.2352C98.4445 60.2352 96.3115 62.3717 96.3115 65.0071C96.3115 67.6426 98.4445 69.779 101.076 69.779Z" fill="#FD6584"/>
<path d="M256.642 21.8479C249.239 19.434 241.626 17.1864 234.012 15.1674C190.196 3.54934 147.126 -0.575681 109.454 3.24063L109.334 2.05348C147.146 -1.77533 190.364 2.35957 234.316 14.0141C241.952 16.0389 249.587 18.2929 257.01 20.7138L256.642 21.8479Z" fill="#F0F0F0"/>
<path d="M228.652 23.6373C221.249 21.2234 213.635 18.9758 206.021 16.9569C162.206 5.33879 119.135 1.21377 81.4636 5.03005L81.3438 3.84291C119.156 0.0140953 162.374 4.14899 206.326 15.8035C213.962 17.8283 221.597 20.0823 229.02 22.5032L228.652 23.6373Z" fill="#F0F0F0"/>
<path d="M243.037 67.4596H241.677V30.1467C241.677 24.4192 239.406 18.9263 235.362 14.8763C231.319 10.8263 225.835 8.55104 220.116 8.55103H141.191C138.36 8.55102 135.556 9.1096 132.94 10.1949C130.324 11.2802 127.947 12.8709 125.945 14.8762C123.943 16.8815 122.355 19.2622 121.271 21.8823C120.188 24.5024 119.63 27.3107 119.63 30.1466V234.848C119.63 240.576 121.901 246.069 125.945 250.119C129.988 254.169 135.473 256.444 141.191 256.444H220.116C225.835 256.444 231.319 254.169 235.362 250.119C239.406 246.069 241.677 240.576 241.677 234.848V94.0195H243.037V67.4596Z" fill="#3F3D56"/>
<path d="M237.086 30.2965V234.698C237.087 236.816 236.671 238.912 235.862 240.869C235.053 242.825 233.868 244.603 232.373 246.1C230.878 247.598 229.104 248.786 227.151 249.596C225.198 250.407 223.104 250.824 220.99 250.824H141.679C137.409 250.825 133.314 249.126 130.295 246.102C127.276 243.078 125.579 238.977 125.579 234.7V30.2965C125.579 28.1789 125.995 26.082 126.804 24.1256C127.613 22.1691 128.799 20.3914 130.294 18.8939C131.789 17.3965 133.563 16.2086 135.517 15.3981C137.47 14.5876 139.563 14.1704 141.678 14.1703H151.304C150.83 15.3336 150.649 16.5958 150.777 17.8457C150.905 19.0956 151.338 20.2949 152.037 21.3378C152.737 22.3807 153.682 23.2352 154.789 23.8261C155.896 24.417 157.131 24.7261 158.385 24.7262H203.603C204.857 24.7253 206.092 24.4157 207.198 23.8245C208.305 23.2334 209.249 22.3789 209.949 21.3363C210.648 20.2936 211.081 19.0948 211.209 17.8452C211.337 16.5956 211.157 15.3336 210.684 14.1703H220.986C223.1 14.1702 225.194 14.5872 227.147 15.3975C229.101 16.2077 230.875 17.3954 232.37 18.8927C233.866 20.3901 235.051 22.1676 235.861 24.124C236.67 26.0804 237.086 28.1772 237.086 30.2949L237.086 30.2965Z" fill="#F2F2F2"/>
<path d="M231.077 231.675H206.474V232.778H231.077V231.675Z" fill="white"/>
<path d="M193.634 231.675H169.031V232.778H193.634V231.675Z" fill="white"/>
<path d="M156.192 231.675H131.589V232.778H156.192V231.675Z" fill="white"/>
<path d="M235.73 249.16L228.247 249.159L224.688 220.252L235.731 220.252L235.73 249.16Z" fill="#FFB8B8"/>
<path d="M237.554 256.654H233.283L232.521 252.615L230.569 256.654H219.242C218.7 256.654 218.171 256.48 217.734 256.158C217.296 255.835 216.973 255.381 216.812 254.862C216.65 254.343 216.658 253.786 216.835 253.272C217.012 252.758 217.349 252.314 217.796 252.005L226.841 245.748V241.666L236.354 242.234L237.554 256.654Z" fill="#2F2E41"/>
<path d="M293.992 245.915L286.593 247.035L278.759 218.985L288.458 217.332L293.992 245.915Z" fill="#FFB8B8"/>
<path d="M295.183 256.654H290.912L290.15 252.615L288.198 256.654H276.871C276.328 256.654 275.8 256.48 275.362 256.158C274.925 255.835 274.602 255.381 274.441 254.862C274.279 254.343 274.287 253.786 274.464 253.272C274.641 252.758 274.978 252.314 275.425 252.005L284.469 245.748V241.666L293.983 242.234L295.183 256.654Z" fill="#2F2E41"/>
<path d="M219.903 194.434H139.703C139.157 194.434 138.634 194.216 138.248 193.83C137.862 193.443 137.646 192.919 137.646 192.373C137.646 191.826 137.862 191.302 138.248 190.915C138.634 190.529 139.157 190.312 139.703 190.312H219.903C220.449 190.312 220.972 190.529 221.358 190.915C221.744 191.302 221.961 191.826 221.961 192.373C221.961 192.919 221.744 193.443 221.358 193.83C220.972 194.216 220.449 194.434 219.903 194.434Z" fill="#CCCCCC"/>
<path d="M219.903 180.094H139.703C139.157 180.094 138.634 179.877 138.248 179.491C137.862 179.104 137.646 178.58 137.646 178.033C137.646 177.487 137.862 176.962 138.248 176.576C138.634 176.189 139.157 175.972 139.703 175.972H219.903C220.449 175.972 220.972 176.189 221.358 176.576C221.744 176.962 221.961 177.487 221.961 178.033C221.961 178.58 221.744 179.104 221.358 179.491C220.972 179.877 220.449 180.094 219.903 180.094Z" fill="#CCCCCC"/>
<path d="M219.903 165.755H139.703C139.433 165.755 139.165 165.702 138.916 165.598C138.666 165.494 138.439 165.343 138.248 165.151C138.057 164.96 137.906 164.733 137.802 164.483C137.699 164.233 137.646 163.965 137.646 163.694C137.646 163.423 137.699 163.155 137.802 162.905C137.906 162.655 138.057 162.428 138.248 162.236C138.439 162.045 138.666 161.893 138.916 161.79C139.165 161.686 139.433 161.633 139.703 161.633H219.903C220.173 161.633 220.441 161.686 220.69 161.79C220.94 161.893 221.167 162.045 221.358 162.236C221.549 162.428 221.7 162.655 221.804 162.905C221.907 163.155 221.961 163.423 221.961 163.694C221.961 163.965 221.907 164.233 221.804 164.483C221.7 164.733 221.549 164.96 221.358 165.151C221.167 165.343 220.94 165.494 220.69 165.598C220.441 165.702 220.173 165.755 219.903 165.755Z" fill="#CCCCCC"/>
<path d="M229.299 129.321L256.279 130.424L259.583 112.224L236.457 105.054L229.299 129.321Z" fill="#FFB8B8"/>
<path d="M257.381 124.909L231.502 120.497L230.581 122.397C225.628 132.635 222.704 143.738 221.97 155.091C221.345 164.674 220.977 174.797 220.965 185.408C220.946 201.848 221.784 217.102 223.108 230.983L237.312 230.894C236.901 216.157 237.46 201.408 238.984 186.744C240.071 176.288 241.582 166.521 243.33 157.508C246.573 170.739 251.149 183.606 256.988 195.911C261.952 206.424 272.162 218.577 277.125 229.091C282.211 228.479 287.297 227.868 292.383 227.257C288.375 216.64 281.225 201.136 277.216 190.519C271.486 175.339 268.897 165.046 263.166 149.866C263.493 147.013 263.557 144.135 263.357 141.27C263.09 136.494 262.098 130.763 259.199 126.942L257.381 124.909Z" fill="#2F2E41"/>
<path d="M121.746 90.9089H117.341V104.697H121.746V90.9089Z" fill="#3F3D56"/>
<path d="M181.332 137.521C201.929 137.521 218.626 120.797 218.626 100.168C218.626 79.5379 201.929 62.8142 181.332 62.8142C160.736 62.8142 144.039 79.5379 144.039 100.168C144.039 120.797 160.736 137.521 181.332 137.521Z" fill="#D1D3D4"/>
<path d="M181.332 135.9C200.123 135.9 215.355 120.643 215.355 101.823C215.355 83.0024 200.123 67.7454 181.332 67.7454C162.542 67.7454 147.31 83.0024 147.31 101.823C147.31 120.643 162.542 135.9 181.332 135.9Z" fill="#FF4D67"/>
<path d="M178.362 115.179C178.289 115.179 178.215 115.177 178.14 115.174C177.488 115.142 176.85 114.969 176.27 114.668C175.69 114.366 175.183 113.942 174.782 113.425L169.42 106.521C168.682 105.569 168.352 104.364 168.501 103.169C168.65 101.974 169.266 100.887 170.214 100.146L170.407 99.9963C171.357 99.2578 172.56 98.9268 173.754 99.0759C174.947 99.225 176.033 99.842 176.773 100.792C177.013 101.102 177.318 101.356 177.666 101.538C178.014 101.719 178.397 101.822 178.789 101.841C179.181 101.864 179.574 101.8 179.938 101.654C180.303 101.507 180.631 101.282 180.898 100.994L191.786 89.4823C192.614 88.6091 193.754 88.1004 194.956 88.0678C196.157 88.0353 197.323 88.4814 198.197 89.3085L198.374 89.4761C199.246 90.3052 199.755 91.4471 199.787 92.6512C199.82 93.8552 199.374 95.0231 198.548 95.8985L181.653 113.761C181.23 114.209 180.72 114.566 180.154 114.81C179.588 115.054 178.978 115.179 178.362 115.179Z" fill="white"/>
<path opacity="0.16" d="M181.332 131.18C172.725 131.179 164.438 127.909 158.141 122.031C151.845 116.152 148.008 108.101 147.403 99.501C147.348 100.294 147.31 101.092 147.31 101.9C147.31 110.938 150.894 119.605 157.275 125.996C163.655 132.387 172.309 135.977 181.332 135.977C190.356 135.977 199.01 132.387 205.39 125.996C211.771 119.605 215.355 110.938 215.355 101.9C215.355 101.092 215.317 100.294 215.262 99.501C214.657 108.101 210.82 116.152 204.523 122.031C198.227 127.909 189.94 131.179 181.332 131.18Z" fill="#231F20"/>
<path d="M121.746 74.3635H117.341V88.1513H121.746V74.3635Z" fill="#3F3D56"/>
<path d="M239.497 89.9017L239.758 81.3034L226.682 78.0198L203.139 71.1404C202.828 70.1937 202.236 69.364 201.444 68.7612C200.651 68.1583 199.695 67.8107 198.7 67.7643C197.706 67.7178 196.721 67.9748 195.876 68.5011C195.031 69.0274 194.365 69.7984 193.967 70.7119C193.569 71.6255 193.457 72.6385 193.646 73.6172C193.835 74.5958 194.317 75.4939 195.027 76.1926C195.736 76.8913 196.641 77.3577 197.621 77.5301C198.602 77.7025 199.611 77.5728 200.516 77.1581L223.404 86.5815L239.497 89.9017Z" fill="#FFB8B8"/>
<path d="M231.07 89.8414L238.426 79.3328L238.61 79.3572C238.725 79.3725 250.261 80.9183 257.824 83.174C258.674 83.3995 259.464 83.8081 260.14 84.3712C260.817 84.9342 261.362 85.6382 261.738 86.4341C262.279 87.5462 262.483 88.7922 262.327 90.0191C262.17 91.246 261.659 92.4004 260.857 93.3406C260.04 94.3569 258.948 95.1161 257.712 95.5274C256.476 95.9388 255.148 95.985 253.886 95.6604L231.07 89.8414Z" fill="#FF4D67"/>
<path d="M261.379 116.996C262.672 119.416 259.602 124.428 257.381 124.909L231.789 116.623L244.675 79.2224L251.158 80.4026L261.527 82.1524L265.205 85.5009C266.131 86.345 266.793 87.4404 267.11 88.6539C267.426 89.8674 267.384 91.1469 266.989 92.3369L261.379 116.996Z" fill="#FF4D67"/>
<path d="M243.762 102.542L236.522 97.9143L227.01 107.483L209.055 124.214C208.083 123.997 207.069 124.081 206.146 124.454C205.223 124.827 204.435 125.472 203.886 126.304C203.338 127.135 203.054 128.114 203.072 129.111C203.091 130.107 203.411 131.075 203.99 131.885C204.57 132.696 205.381 133.311 206.318 133.649C207.254 133.988 208.27 134.033 209.233 133.781C210.196 133.528 211.059 132.988 211.709 132.233C212.358 131.478 212.764 130.543 212.872 129.552L232.673 114.687L243.762 102.542Z" fill="#FFB8B8"/>
<path d="M239.395 109.76L234.15 98.0505L234.265 97.9051C234.337 97.8138 241.57 88.6805 247.377 83.3295C248.006 82.7138 248.761 82.2429 249.59 81.9495C250.419 81.6562 251.302 81.5475 252.178 81.6311C253.408 81.736 254.581 82.1983 255.553 82.9613C256.525 83.7243 257.253 84.7548 257.649 85.9264C258.102 87.1493 258.194 88.4772 257.914 89.7512C257.634 91.0253 256.993 92.1915 256.069 93.1106L239.395 109.76Z" fill="#FF4D67"/>
<path d="M255.709 76.7232C261.995 76.7232 267.091 71.6191 267.091 65.3229C267.091 59.0267 261.995 53.9226 255.709 53.9226C249.423 53.9226 244.327 59.0267 244.327 65.3229C244.327 71.6191 249.423 76.7232 255.709 76.7232Z" fill="#FFB8B8"/>
<path d="M264.9 81.8422L264.857 81.8312L248.317 77.6876C247.743 77.544 247.212 77.2679 246.764 76.8814C246.317 76.4949 245.966 76.0088 245.74 75.4621C245.514 74.9153 245.42 74.3231 245.463 73.733C245.507 73.1429 245.688 72.5712 245.992 72.0639L246.539 71.1535C247.072 70.2644 247.375 69.2557 247.419 68.2193C247.464 67.1829 247.248 66.1519 246.793 65.2204C246.009 63.699 244.661 62.546 243.039 62.0088L242.984 61.9824L242.637 61.7659C242.295 61.6045 241.991 61.3734 241.744 61.0875C241.497 60.8015 241.312 60.467 241.202 60.1054C241.087 59.7308 241.052 59.3361 241.099 58.9471C241.147 58.558 241.275 58.1832 241.476 57.8469C242.936 55.4005 245.121 53.4709 247.727 52.3266C251.02 50.9068 254.729 50.7953 258.1 52.0145C258.325 51.8078 258.597 51.6602 258.893 51.5849C259.189 51.5097 259.498 51.5092 259.794 51.5834C268.36 53.6612 269.065 59.4201 267.373 68.6644L269.376 76.7558C269.517 77.3271 269.533 77.9225 269.422 78.5005C269.31 79.0785 269.075 79.6253 268.731 80.1028C268.388 80.5804 267.944 80.9773 267.432 81.2659C266.92 81.5545 266.351 81.7279 265.765 81.7741L264.9 81.8422ZM258.009 52.1056L258.008 52.1066L258.009 52.1056ZM258.215 52.0549L258.217 52.0555L258.215 52.0549Z" fill="#2F2E41"/>
<path d="M121.746 47.8909H117.341V71.6059H121.746V47.8909Z" fill="#3F3D56"/>
<path d="M231.077 33.682H206.474V34.785H231.077V33.682Z" fill="white"/>
<path d="M193.634 33.682H169.031V34.785H193.634V33.682Z" fill="white"/>
<path d="M156.192 33.682H131.589V34.785H156.192V33.682Z" fill="white"/>
<path d="M159.74 19.7638C160.956 19.7638 161.942 18.7761 161.942 17.5577C161.942 16.3394 160.956 15.3517 159.74 15.3517C158.523 15.3517 157.537 16.3394 157.537 17.5577C157.537 18.7761 158.523 19.7638 159.74 19.7638Z" fill="white"/>
<path d="M100.881 16.0787C103.513 16.0787 105.646 13.9422 105.646 11.3068C105.646 8.67136 103.513 6.53491 100.881 6.53491C98.2502 6.53491 96.1172 8.67136 96.1172 11.3068C96.1172 13.9422 98.2502 16.0787 100.881 16.0787Z" fill="#E6E6E6"/>
</g>
<defs>
<clipPath id="clip0_1227_30814">
<rect width="360" height="257" fill="white" transform="translate(0 0.666626)"/>
</clipPath>
</defs>
</svg>
