<svg width="250" height="245" viewBox="0 0 250 245" fill="none" xmlns="http://www.w3.org/2000/svg">
<g clip-path="url(#clip0_1227_30785)">
<path d="M209.794 234.932L205.544 234.895L203.663 218.094L209.935 218.147L209.794 234.932Z" fill="#A0616A"/>
<path d="M196.181 241.7C196.177 242.205 196.373 242.69 196.726 243.05C197.079 243.41 197.561 243.615 198.065 243.62L206.514 243.691L207.994 240.687L208.537 243.706L211.725 243.735L210.92 232.969L209.811 232.895L205.286 232.583L203.827 232.485L203.801 235.531L197.013 240.142C196.759 240.315 196.55 240.547 196.405 240.818C196.26 241.09 196.183 241.392 196.181 241.7Z" fill="#2F2E41"/>
<path d="M162.762 234.951L158.71 233.665L161.84 217.052L167.821 218.948L162.762 234.951Z" fill="#A0616A"/>
<path d="M147.764 237.415C147.612 237.896 147.658 238.418 147.89 238.866C148.121 239.314 148.521 239.651 149.002 239.804L157.058 242.358L159.353 239.923L158.986 242.968L162.026 243.934L164.414 233.406L163.376 233.009L159.142 231.379L157.776 230.856L156.858 233.76L149.017 236.17C148.723 236.261 148.456 236.421 148.237 236.638C148.019 236.855 147.857 237.121 147.764 237.415Z" fill="#2F2E41"/>
<path d="M222.511 235.538C222.746 235.549 222.98 235.487 223.179 235.361C223.378 235.234 223.533 235.05 223.624 234.832C223.715 234.614 223.737 234.373 223.687 234.143C223.637 233.912 223.517 233.702 223.344 233.542L223.265 233.228C223.276 233.203 223.286 233.178 223.297 233.153C223.534 232.592 223.931 232.113 224.439 231.778C224.947 231.442 225.543 231.264 226.151 231.266C226.76 231.269 227.354 231.451 227.859 231.79C228.365 232.13 228.759 232.611 228.992 233.174C229.923 235.421 231.109 237.672 231.401 240.048C231.53 241.098 231.476 242.163 231.241 243.194C233.429 238.414 234.565 233.219 234.572 227.961C234.573 226.641 234.499 225.323 234.353 224.011C234.232 222.936 234.064 221.869 233.849 220.809C232.676 215.059 230.159 209.67 226.503 205.084C224.733 204.117 223.302 202.63 222.403 200.823C222.077 200.174 221.846 199.481 221.719 198.765C221.918 198.791 222.471 195.746 222.321 195.56C222.599 195.137 223.097 194.927 223.401 194.514C224.912 192.462 226.993 192.821 228.08 195.609C230.401 196.782 230.424 198.729 228.999 200.6C228.093 201.791 227.969 203.403 227.174 204.677C227.255 204.782 227.34 204.884 227.422 204.989C228.918 206.915 230.221 208.983 231.314 211.164C231.048 208.721 231.365 206.249 232.239 203.953C233.125 201.813 234.785 200.011 236.247 198.161C236.633 197.664 237.158 197.293 237.755 197.095C238.353 196.897 238.995 196.88 239.601 197.048C240.208 197.215 240.751 197.559 241.162 198.035C241.574 198.512 241.835 199.1 241.913 199.725C241.916 199.753 241.919 199.78 241.921 199.807C241.704 199.93 241.492 200.06 241.284 200.198C241.023 200.373 240.82 200.623 240.703 200.915C240.586 201.207 240.56 201.527 240.628 201.835C240.696 202.142 240.855 202.421 241.084 202.637C241.313 202.852 241.602 202.992 241.913 203.04L241.944 203.045C241.867 203.829 241.73 204.606 241.535 205.369C243.411 212.633 239.362 215.279 233.581 215.398C233.453 215.464 233.329 215.529 233.201 215.592C234.299 218.707 234.987 221.953 235.249 225.247C235.398 227.19 235.389 229.142 235.223 231.084L235.233 231.015C235.652 228.856 236.802 226.908 238.489 225.499C240.994 223.438 244.534 222.679 247.237 221.022C247.525 220.837 247.859 220.738 248.2 220.737C248.541 220.736 248.876 220.833 249.164 221.017C249.452 221.2 249.682 221.462 249.827 221.772C249.971 222.082 250.024 222.427 249.979 222.766L249.968 222.838C249.565 223.002 249.173 223.192 248.793 223.405C248.576 223.528 248.363 223.658 248.155 223.796C247.894 223.97 247.692 224.22 247.575 224.512C247.458 224.804 247.431 225.125 247.499 225.432C247.567 225.74 247.726 226.019 247.956 226.234C248.185 226.449 248.474 226.59 248.784 226.638L248.816 226.643C248.839 226.646 248.859 226.65 248.881 226.653C248.193 228.3 247.227 229.815 246.025 231.133C244.852 237.475 239.816 238.076 234.428 236.23H234.425C233.834 238.803 232.977 241.307 231.869 243.702H222.74C222.707 243.601 222.678 243.496 222.648 243.394C223.493 243.447 224.341 243.397 225.174 243.243C224.497 242.411 223.82 241.572 223.142 240.74C223.127 240.724 223.113 240.708 223.1 240.69C222.756 240.264 222.409 239.841 222.066 239.415L222.065 239.415C222.047 238.109 222.197 236.806 222.511 235.538L222.511 235.538Z" fill="#F2F2F2"/>
<path d="M120.4 243.73C120.4 243.809 120.416 243.888 120.446 243.961C120.476 244.034 120.52 244.101 120.576 244.157C120.632 244.213 120.699 244.258 120.772 244.288C120.846 244.318 120.924 244.334 121.003 244.333H249.326C249.486 244.333 249.64 244.27 249.753 244.157C249.866 244.043 249.929 243.89 249.929 243.73C249.929 243.569 249.866 243.416 249.753 243.303C249.64 243.189 249.486 243.126 249.326 243.126H121.003C120.924 243.125 120.846 243.141 120.772 243.171C120.699 243.201 120.632 243.246 120.576 243.302C120.52 243.358 120.476 243.425 120.446 243.498C120.416 243.572 120.4 243.65 120.4 243.73Z" fill="#CCCCCC"/>
<path d="M241.983 131.124C244.502 131.124 246.543 129.079 246.543 126.557C246.543 124.035 244.502 121.99 241.983 121.99C239.465 121.99 237.424 124.035 237.424 126.557C237.424 129.079 239.465 131.124 241.983 131.124Z" fill="#FF4D67"/>
<path d="M159.454 55.0294H146.152V168.617C146.152 170.399 145.802 172.164 145.121 173.811C144.44 175.457 143.442 176.953 142.184 178.213C140.925 179.474 139.432 180.473 137.788 181.155C136.144 181.837 134.382 182.188 132.603 182.188H30.9043V182.318C30.9043 184.1 31.2547 185.865 31.9357 187.511C32.6166 189.158 33.6146 190.654 34.8728 191.914C36.1309 193.174 37.6246 194.174 39.2685 194.856C40.9123 195.538 42.6742 195.889 44.4535 195.889H159.454C161.233 195.889 162.995 195.538 164.639 194.856C166.283 194.174 167.777 193.174 169.035 191.914C170.293 190.654 171.291 189.158 171.972 187.511C172.653 185.865 173.003 184.1 173.003 182.318V68.6003C173.003 65.0011 171.576 61.5493 169.035 59.0043C166.494 56.4592 163.047 55.0294 159.454 55.0294Z" fill="#F2F2F2"/>
<path d="M121.957 39.5782C122.29 40.084 122.729 40.5113 123.244 40.8304C123.758 41.1496 124.335 41.353 124.936 41.4266C125.537 41.5003 126.146 41.4423 126.722 41.2569C127.298 41.0714 127.827 40.7628 128.272 40.3525L147.253 48.9295L150.912 44.2544L128.294 34.2324C127.549 33.533 126.573 33.1319 125.553 33.1049C124.532 33.0778 123.536 33.4269 122.755 34.0858C121.974 34.7448 121.461 35.6679 121.314 36.6802C121.167 37.6924 121.396 38.7236 121.957 39.5782H121.957Z" fill="#A0616A"/>
<path d="M203.415 44.9265L205.297 55.6113C205.385 56.1097 205.368 56.6211 205.247 57.1125C205.125 57.6039 204.903 58.0645 204.594 58.4648C204.284 58.865 203.895 59.196 203.45 59.4366C203.005 59.6771 202.515 59.8219 202.012 59.8616L170.024 62.3811L132.424 45.5263L136.915 36.9875L169.555 47.3404L203.415 44.9265Z" fill="#FF4D67"/>
<path d="M128.55 37.269H13.5492C6.0662 37.269 0 43.345 0 50.84V164.558C0 172.053 6.0662 178.129 13.5492 178.129H128.55C136.033 178.129 142.099 172.053 142.099 164.558V50.84C142.099 43.345 136.033 37.269 128.55 37.269Z" fill="#F2F2F2"/>
<path d="M13.549 40.0599C12.1356 40.0599 10.736 40.3388 9.4302 40.8805C8.12439 41.4223 6.93791 42.2163 5.93849 43.2173C4.93907 44.2184 4.14628 45.4067 3.60539 46.7146C3.06451 48.0225 2.78613 49.4243 2.78613 50.84V164.558C2.78613 167.417 3.92007 170.159 5.93849 172.18C7.95691 174.202 10.6945 175.338 13.549 175.338H86.945C93.822 175.338 100.632 173.981 106.985 171.345C113.338 168.709 119.111 164.846 123.974 159.975C128.837 155.105 132.694 149.323 135.326 142.959C137.958 136.595 139.312 129.775 139.312 122.887V50.84C139.312 49.4243 139.034 48.0225 138.493 46.7146C137.952 45.4067 137.159 44.2184 136.16 43.2173C135.16 42.2163 133.974 41.4223 132.668 40.8805C131.362 40.3388 129.963 40.0599 128.549 40.0599H13.549Z" fill="white"/>
<path d="M150.361 179.723H108.105C107.513 179.723 106.945 179.487 106.526 179.067C106.107 178.648 105.872 178.079 105.872 177.486C105.872 176.893 106.107 176.324 106.526 175.904C106.945 175.485 107.513 175.249 108.105 175.249H150.361C150.953 175.249 151.521 175.485 151.94 175.904C152.359 176.324 152.594 176.893 152.594 177.486C152.594 178.079 152.359 178.648 151.94 179.067C151.521 179.487 150.953 179.723 150.361 179.723Z" fill="#FF4D67"/>
<path d="M144.715 145.398H48.963C46.8804 145.398 44.883 146.227 43.4103 147.702C41.9377 149.177 41.1104 151.177 41.1104 153.263C41.1104 155.349 41.9377 157.35 43.4103 158.825C44.883 160.3 46.8804 161.129 48.963 161.129H144.715C146.798 161.129 148.795 160.3 150.268 158.825C151.741 157.35 152.568 155.349 152.568 153.263C152.568 151.177 151.741 149.177 150.268 147.702C148.795 146.227 146.798 145.398 144.715 145.398Z" fill="white"/>
<path d="M144.715 161.636H48.9628C46.7458 161.636 44.6196 160.754 43.0519 159.184C41.4842 157.614 40.6035 155.484 40.6035 153.263C40.6035 151.043 41.4842 148.913 43.0519 147.343C44.6196 145.773 46.7458 144.891 48.9628 144.891H144.715C146.932 144.891 149.058 145.773 150.626 147.343C152.194 148.913 153.074 151.043 153.074 153.263C153.074 155.484 152.194 157.614 150.626 159.184C149.058 160.754 146.932 161.636 144.715 161.636ZM48.9628 145.905C47.0145 145.905 45.146 146.681 43.7684 148.061C42.3907 149.44 41.6168 151.312 41.6168 153.263C41.6168 155.215 42.3907 157.086 43.7684 158.466C45.146 159.846 47.0145 160.621 48.9628 160.621H144.715C146.663 160.621 148.532 159.846 149.91 158.466C151.287 157.086 152.061 155.215 152.061 153.263C152.061 151.312 151.287 149.44 149.91 148.061C148.532 146.681 146.663 145.905 144.715 145.905H48.9628Z" fill="#FF4D67"/>
<path d="M103.198 122.27H38.6502C38.0579 122.27 37.4899 122.035 37.0711 121.615C36.6523 121.196 36.417 120.627 36.417 120.034C36.417 119.44 36.6523 118.871 37.0711 118.452C37.4899 118.033 38.0579 117.797 38.6502 117.797H103.198C103.79 117.797 104.358 118.033 104.777 118.452C105.195 118.871 105.431 119.44 105.431 120.034C105.431 120.627 105.195 121.196 104.777 121.615C104.358 122.035 103.79 122.27 103.198 122.27Z" fill="#F2F2F2"/>
<path d="M129.408 98.4365H12.4383C11.846 98.4365 11.278 98.2008 10.8592 97.7813C10.4404 97.3619 10.2051 96.7929 10.2051 96.1997C10.2051 95.6064 10.4404 95.0375 10.8592 94.618C11.278 94.1985 11.846 93.9629 12.4383 93.9629H129.408C130.001 93.9629 130.569 94.1985 130.987 94.618C131.406 95.0375 131.641 95.6064 131.641 96.1997C131.641 96.7929 131.406 97.3619 130.987 97.7813C130.569 98.2008 130.001 98.4365 129.408 98.4365Z" fill="#F2F2F2"/>
<path d="M199.373 92.0206L187.721 116.885L232.545 112.338L223.189 88.4685L199.373 92.0206Z" fill="#A0616A"/>
<path d="M230.504 105.346L189.748 112.826C189.748 112.826 183.21 117.723 184.959 119.477C186.708 121.231 186.979 120.96 185.83 122.11C184.681 123.261 182.197 124.799 182.173 125.806C182.148 126.813 163.91 171.975 163.91 171.975C163.91 171.975 165.936 170.96 164.416 172.483C162.896 174.005 162.896 175.263 162.896 175.263L155.804 223.226L167.323 223.905L178.602 180.178L203.761 139.327C203.761 139.327 206.257 175.756 206.362 178.179C206.466 180.602 207.986 177.557 206.466 180.602C204.946 183.646 203.933 181.616 204.946 183.646C205.96 185.676 201.296 226.999 201.296 226.999H211.81L234.36 141.348C234.36 141.348 242.383 116.861 230.504 105.346Z" fill="#2F2E41"/>
<path d="M242.035 128.44C242.359 127.928 242.568 127.352 242.648 126.752C242.728 126.151 242.677 125.54 242.498 124.961C242.319 124.382 242.016 123.849 241.611 123.399C241.206 122.948 240.708 122.592 240.152 122.353L240.185 101.497L234.428 100.069L234.57 124.841C234.238 125.808 234.273 126.864 234.666 127.808C235.06 128.752 235.786 129.518 236.706 129.962C237.626 130.406 238.677 130.496 239.659 130.215C240.642 129.935 241.487 129.303 242.035 128.44V128.44Z" fill="#A0616A"/>
<path d="M103.198 74.5714H38.6502C38.0579 74.5714 37.4899 74.3357 37.0711 73.9162C36.6523 73.4967 36.417 72.9278 36.417 72.3346C36.417 71.7413 36.6523 71.1724 37.0711 70.7529C37.4899 70.3334 38.0579 70.0978 38.6502 70.0978H103.198C103.79 70.0978 104.358 70.3334 104.777 70.7529C105.195 71.1724 105.431 71.7413 105.431 72.3346C105.431 72.9278 105.195 73.4967 104.777 73.9162C104.358 74.3357 103.79 74.5714 103.198 74.5714Z" fill="#F2F2F2"/>
<path d="M218.497 36.8356L202.171 35.1366L197.942 40.6368L193.014 43.2655C190.929 44.3779 189.208 46.0683 188.056 48.1347C186.905 50.201 186.372 52.5558 186.522 54.9174L192.28 88.4686C192.28 88.4686 187.416 99.439 190.76 102.169C194.105 104.9 188.175 111.662 195.32 108.259C202.465 104.855 233.317 108.766 233.317 108.766L226.731 89.991L231.651 71.5418L232.192 56.0724C232.294 53.1817 231.437 50.3387 229.756 47.9865C228.076 45.6343 225.666 43.9051 222.901 43.0684L222.213 42.8602L218.497 36.8356Z" fill="#FF4D67"/>
<path d="M213.524 51.8266L222.484 45.728C222.902 45.4435 223.374 45.2497 223.872 45.159C224.369 45.0683 224.879 45.0827 225.371 45.2014C225.862 45.32 226.323 45.5402 226.724 45.8479C227.126 46.1556 227.458 46.5439 227.701 46.9879L243.104 75.1804L243.163 116.44L233.546 115.837L229.599 81.7726L213.524 51.8266Z" fill="#FF4D67"/>
<path d="M240.974 24.2996C241.081 28.9087 239.361 33.3716 236.891 37.2915C236.156 35.0031 234.837 32.9204 233.461 30.9349C234.154 35.23 233.415 39.6343 231.358 43.4664C231.286 43.5183 231.21 43.5666 231.133 43.6109C229.119 44.8242 226.566 45.3156 224.388 44.4394C228.889 39.5798 229.462 31.5282 225.688 26.0774C224.62 24.5307 223.238 23.1628 222.576 21.4027C221.531 18.5943 222.536 15.5021 223.169 12.5741C223.762 9.84891 223.865 6.60597 222.04 4.60878C222.235 4.32967 222.501 4.10751 222.81 3.96504C223.118 3.82258 223.46 3.76494 223.798 3.79803C224.924 3.95726 225.743 4.93705 226.264 5.94617C226.786 6.95526 227.13 8.07368 227.857 8.94529C229.204 10.5767 231.497 10.9624 233.43 11.8222C238.11 13.9101 240.862 19.171 240.974 24.2996Z" fill="#2F2E41"/>
<path d="M201.58 21.6644C201.847 20.7269 200.004 26.4578 200.893 26.5613C204.945 27.0268 210.506 29.4502 213.328 30.5808C213.455 30.566 213.582 30.5512 213.705 30.5327C214.008 30.4995 214.303 30.4515 214.595 30.396C221.165 29.1509 223.691 19.0421 223.691 18.9497C223.691 18.4953 222.602 6.01365 220.887 5.82895C220.436 5.77998 219.984 5.75531 219.53 5.75505H215.274C214.393 5.56493 213.5 5.43532 212.601 5.36711H212.594C204.024 4.71314 197.267 9.94482 197.899 16.3108C197.902 16.3182 197.91 16.3256 197.914 16.333C198.097 16.6064 198.257 16.865 198.399 17.1126C198.538 17.3453 198.654 17.567 198.755 17.7776C199.536 19.4033 197.528 21.4489 198.859 21.8307C200.63 22.3385 194.202 39.0295 201.211 39.0295C197.802 40.0003 200.842 24.2507 201.58 21.6644Z" fill="#2F2E41"/>
<path d="M209.229 31.458C214.795 31.458 219.308 26.9384 219.308 21.3633C219.308 15.7881 214.795 11.2686 209.229 11.2686C203.663 11.2686 199.15 15.7881 199.15 21.3633C199.15 26.9384 203.663 31.458 209.229 31.458Z" fill="#A0616A"/>
<path d="M197.898 16.8613C198.067 16.95 198.231 17.0312 198.399 17.1125C198.575 17.1975 198.751 17.2825 198.926 17.3601C202.301 18.8934 205.048 19.0633 206.715 16.8613C206.759 15.7026 207.019 14.5624 207.481 13.4991C207.399 14.6874 207.712 15.8694 208.37 16.8613H211.727C215.184 19.1594 216.959 19.3995 214.56 26.9441C213.891 29.0464 211.231 41.2795 212.277 43.0936C212.58 43.0604 215.8 29.6613 216.092 29.6059C222.662 28.3608 226.837 17.5189 226.302 16.9056C226.305 15.1615 225.904 13.4404 225.132 11.8771C224.156 9.8965 222.633 8.23746 220.745 7.09619C219.619 6.54953 218.446 6.10799 217.239 5.77718C217.209 5.76978 217.183 5.76238 217.153 5.75501C216.783 5.65524 216.406 5.56288 216.028 5.48529C215.248 5.32037 214.46 5.20071 213.666 5.12691C213.61 5.12321 213.554 5.11951 213.502 5.11951C213.185 5.12025 212.874 5.20571 212.601 5.36707C212.597 5.36707 212.597 5.37075 212.594 5.37075C212.399 5.48488 212.228 5.63687 212.093 5.8178C211.854 6.12223 211.725 6.49848 211.727 6.88557H207.989C207.851 6.88557 207.713 6.88926 207.574 6.89664C205.08 6.98202 202.707 7.99663 200.92 9.74191C199.134 11.4872 198.061 13.8375 197.913 16.3329C197.902 16.5103 197.898 16.6839 197.898 16.8613Z" fill="#2F2E41"/>
<path d="M219.935 13.6343C223.602 13.6343 226.575 10.6568 226.575 6.98383C226.575 3.31089 223.602 0.333374 219.935 0.333374C216.268 0.333374 213.295 3.31089 213.295 6.98383C213.295 10.6568 216.268 13.6343 219.935 13.6343Z" fill="#2F2E41"/>
</g>
<defs>
<clipPath id="clip0_1227_30785">
<rect width="250" height="244" fill="white" transform="translate(0 0.333374)"/>
</clipPath>
</defs>
</svg>
